<?xml version="1.0" encoding="UTF-8"?>
<!DOCTYPE svg PUBLIC "-//W3C//DTD SVG 1.1//EN" "http://www.w3.org/Graphics/SVG/1.1/DTD/svg11.dtd">
<svg xmlns="http://www.w3.org/2000/svg" version="1.1" width="500px" height="500px" style="shape-rendering:geometricPrecision; text-rendering:geometricPrecision; image-rendering:optimizeQuality; fill-rule:evenodd; clip-rule:evenodd" xmlns:xlink="http://www.w3.org/1999/xlink">
<g><path style="opacity:0.989" fill="#fbbd06" d="M 257.5,153.5 C 259.802,155.671 261.635,158.338 263,161.5C 263.667,183.833 263.667,206.167 263,228.5C 261.633,232.013 259.466,234.68 256.5,236.5C 255.833,236.5 255.167,236.5 254.5,236.5C 230.167,235.167 205.833,235.167 181.5,236.5C 180.833,236.5 180.167,236.5 179.5,236.5C 176.5,234.167 173.833,231.5 171.5,228.5C 171.333,205.498 171.5,182.498 172,159.5C 173.167,157 175,155.167 177.5,154C 204.165,153.5 230.831,153.333 257.5,153.5 Z"/></g>
<g><path style="opacity:0.973" fill="#478afc" d="M 257.5,153.5 C 302.168,153.333 346.835,153.5 391.5,154C 395.089,155.674 396.755,158.507 396.5,162.5C 395.167,184.5 395.167,206.5 396.5,228.5C 395.909,231.614 394.242,234.114 391.5,236C 346.501,236.5 301.501,236.667 256.5,236.5C 259.466,234.68 261.633,232.013 263,228.5C 263.667,206.167 263.667,183.833 263,161.5C 261.635,158.338 259.802,155.671 257.5,153.5 Z"/></g>
<g><path style="opacity:0.5" fill="#d8e6ff" d="M 396.5,162.5 C 397.833,184.5 397.833,206.5 396.5,228.5C 395.167,206.5 395.167,184.5 396.5,162.5 Z"/></g>
<g><path style="opacity:1" fill="#000001" d="M 322.5,171.5 C 322.5,183.833 322.5,196.167 322.5,208.5C 324.167,208.5 325.833,208.5 327.5,208.5C 327.5,209.5 327.5,210.5 327.5,211.5C 323.167,211.5 318.833,211.5 314.5,211.5C 314.5,210.5 314.5,209.5 314.5,208.5C 315.833,208.5 317.167,208.5 318.5,208.5C 319.495,197.012 319.828,185.345 319.5,173.5C 317.833,173.5 316.167,173.5 314.5,173.5C 314.5,172.5 314.5,171.5 314.5,170.5C 317.385,170.194 320.052,170.527 322.5,171.5 Z"/></g>
<g><path style="opacity:1" fill="#130d01" d="M 209.5,172.5 C 222.743,171.295 233.743,175.462 242.5,185C 242.167,185.5 241.833,186 241.5,186.5C 229.471,177.514 216.138,175.014 201.5,179C 196.919,180.871 192.752,183.371 189,186.5C 188.5,186 188,185.5 187.5,185C 193.589,178.46 200.923,174.294 209.5,172.5 Z"/></g>
<g><path style="opacity:1" fill="#2a5399" d="M 322.5,171.5 C 323.495,183.322 323.828,195.322 323.5,207.5C 325.099,207.232 326.432,207.566 327.5,208.5C 325.833,208.5 324.167,208.5 322.5,208.5C 322.5,196.167 322.5,183.833 322.5,171.5 Z"/></g>
<g><path style="opacity:1" fill="#162c51" d="M 314.5,173.5 C 316.167,173.5 317.833,173.5 319.5,173.5C 319.828,185.345 319.495,197.012 318.5,208.5C 318.5,197.167 318.5,185.833 318.5,174.5C 316.901,174.768 315.568,174.434 314.5,173.5 Z"/></g>
<g><path style="opacity:1" fill="#0a0d15" d="M 293.5,183.5 C 296.85,183.335 300.183,183.502 303.5,184C 305.002,184.583 306.335,185.416 307.5,186.5C 308.294,192.783 308.794,199.116 309,205.5C 310.559,207.217 311.392,209.217 311.5,211.5C 308.722,211.978 306.722,210.978 305.5,208.5C 301.886,212.165 297.553,213.332 292.5,212C 287.668,208.83 286.501,204.664 289,199.5C 293.058,196.7 297.558,194.866 302.5,194C 304.602,192.267 304.935,190.267 303.5,188C 299.768,186.068 296.101,186.068 292.5,188C 295.032,188.612 295.865,190.112 295,192.5C 293.301,193.406 291.467,193.739 289.5,193.5C 287.572,188.707 288.905,185.373 293.5,183.5 Z"/></g>
<g><path style="opacity:1" fill="#05070e" d="M 331.5,183.5 C 334.167,183.5 336.833,183.5 339.5,183.5C 339.03,187.97 340.03,188.47 342.5,185C 350.581,181.602 354.081,184.102 353,192.5C 351.301,193.406 349.467,193.739 347.5,193.5C 347.178,191.278 347.845,189.444 349.5,188C 344.616,186.859 341.45,188.692 340,193.5C 339.501,198.489 339.334,203.489 339.5,208.5C 341.5,208.5 343.5,208.5 345.5,208.5C 345.5,209.5 345.5,210.5 345.5,211.5C 340.833,211.5 336.167,211.5 331.5,211.5C 331.5,210.5 331.5,209.5 331.5,208.5C 332.833,208.5 334.167,208.5 335.5,208.5C 335.5,201.5 335.5,194.5 335.5,187.5C 334.167,187.5 332.833,187.5 331.5,187.5C 331.5,186.167 331.5,184.833 331.5,183.5 Z"/></g>
<g><path style="opacity:1" fill="#070911" d="M 363.5,183.5 C 367.182,183.335 370.848,183.501 374.5,184C 380.227,186.745 381.56,190.745 378.5,196C 377.167,196.667 375.833,196.667 374.5,196C 373.828,193.169 373.828,190.503 374.5,188C 371.5,187.333 368.5,187.333 365.5,188C 361.158,193.206 360.325,199.04 363,205.5C 365.559,208.349 368.726,209.183 372.5,208C 374.607,206.736 375.607,204.903 375.5,202.5C 379.84,202.854 380.673,204.854 378,208.5C 372.706,213.473 367.039,213.806 361,209.5C 355.576,200.076 356.409,191.409 363.5,183.5 Z"/></g>
<g><path style="opacity:1" fill="#120c01" d="M 213.5,190.5 C 219.989,190.156 221.989,192.99 219.5,199C 211.749,200.091 209.749,197.258 213.5,190.5 Z"/></g>
<g><path style="opacity:1" fill="#130e01" d="M 229.5,190.5 C 236.997,189.804 238.997,192.637 235.5,199C 233.231,199.758 231.064,199.591 229,198.5C 228.398,195.779 228.565,193.113 229.5,190.5 Z"/></g>
<g><path style="opacity:1" fill="#4383f1" d="M 300.5,197.5 C 301.833,197.5 303.167,197.5 304.5,197.5C 305.696,206.81 301.863,210.143 293,207.5C 291.699,205.635 291.365,203.635 292,201.5C 294.564,199.376 297.397,198.042 300.5,197.5 Z"/></g>
<g><path style="opacity:1" fill="#100a00" d="M 188.5,203.5 C 193.555,207.361 199.222,210.194 205.5,212C 219.101,214.894 231.268,212.061 242,203.5C 242.5,204 243,204.5 243.5,205C 225.82,221.089 207.654,221.589 189,206.5C 188.517,205.552 188.351,204.552 188.5,203.5 Z"/></g>
<g><path style="opacity:0.22" fill="#ffe394" d="M 171.5,228.5 C 173.833,231.5 176.5,234.167 179.5,236.5C 175.167,235.5 172.5,232.833 171.5,228.5 Z"/></g>
<g><path style="opacity:0.5" fill="#ffefbf" d="M 254.5,236.5 C 230.167,237.833 205.833,237.833 181.5,236.5C 205.833,235.167 230.167,235.167 254.5,236.5 Z"/></g>
<g><path style="opacity:0.256" fill="#fefffe" d="M 107.5,353.5 C 110.425,353.46 113.091,354.293 115.5,356C 116.451,356.718 116.617,357.551 116,358.5C 114.274,359.576 112.441,359.743 110.5,359C 109.167,357.667 107.833,356.333 106.5,355C 107.056,354.617 107.389,354.117 107.5,353.5 Z"/></g>
<g><path style="opacity:0.261" fill="#fefffe" d="M 337.5,407.5 C 340.956,408.536 341.29,410.203 338.5,412.5C 336.296,411.218 335.962,409.551 337.5,407.5 Z"/></g>
</svg>
